<?xml version="1.0" standalone="no"?>
<!DOCTYPE svg PUBLIC "-//W3C//DTD SVG 20010904//EN"
 "http://www.w3.org/TR/2001/REC-SVG-20010904/DTD/svg10.dtd">
<svg version="1.0" xmlns="http://www.w3.org/2000/svg"
 width="512.000000pt" height="512.000000pt" viewBox="0 0 512.000000 512.000000"
 preserveAspectRatio="xMidYMid meet">
<metadata>
Created by potrace 1.14, written by Peter Selinger 2001-2017
</metadata>
<g transform="translate(0.000000,512.000000) scale(0.100000,-0.100000)"
fill="#000000" stroke="none">
<path d="M2379 5116 c-2 -2 -40 -6 -83 -10 -44 -4 -82 -8 -85 -10 -3 -2 -31
-7 -61 -11 -30 -3 -75 -11 -100 -17 -25 -5 -56 -12 -70 -14 -14 -3 -72 -18
-129 -35 -464 -133 -906 -414 -1213 -769 -71 -82 -82 -96 -104 -125 -10 -15
-33 -46 -50 -69 -204 -275 -365 -641 -433 -991 -40 -200 -46 -267 -45 -515 0
-183 3 -241 19 -345 3 -16 7 -43 9 -60 37 -265 165 -623 307 -860 10 -16 27
-46 38 -65 19 -36 131 -195 166 -239 72 -87 140 -164 192 -217 431 -431 960
-685 1563 -751 87 -10 428 -10 515 0 217 23 439 73 619 139 652 238 1188 738
1466 1368 110 247 182 519 207 775 15 158 9 505 -11 620 -3 17 -8 44 -10 60
-3 17 -9 53 -15 80 -6 28 -13 61 -15 75 -31 156 -115 389 -206 572 -335 671
-954 1167 -1680 1344 -58 14 -116 28 -130 30 -70 11 -85 14 -195 30 -44 6
-460 15 -466 10z"/>
</g>
</svg>
